<svg width="38" height="32" viewBox="0 0 38 32" fill="none" xmlns="http://www.w3.org/2000/svg">
<path d="M3.0625 16C3.0625 14.9375 3.9375 14 5.0625 14H32.875C34 14 34.875 14.9375 34.875 16H36C37.0625 16 38 16.9375 38 18C38 19.125 37.0625 20 36 20H34.125C32.8125 24 30 27.3125 26.3125 29.25L26.25 29.8125C26.0625 31.0625 25 32 23.75 32H14.1875C12.9375 32 11.875 31.0625 11.6875 29.8125L11.625 29.25C7.9375 27.3125 5.125 24 3.8125 20H2C0.875 20 0 19.125 0 18C0 16.9375 0.875 16 2 16H3.0625Z" fill="#EF4444"/>
<path opacity="0.2" d="M6 1.5C6 3.1875 6.625 3.9375 7.5625 5.0625H7.625C8.625 6.1875 10 7.6875 10 10.5C10 11.375 9.3125 12 8.5 12C7.625 12 7 11.375 7 10.5C7 8.875 6.3125 8.125 5.375 7H5.3125C4.3125 5.8125 3 4.375 3 1.5C3 0.6875 3.625 0 4.5 0C5.3125 0 6 0.6875 6 1.5ZM13 1.5C13 3.1875 13.625 3.9375 14.5625 5.0625H14.625C15.625 6.1875 17 7.6875 17 10.5C17 11.375 16.3125 12 15.5 12C14.625 12 14 11.375 14 10.5C14 8.875 13.3125 8.125 12.375 7H12.3125C11.3125 5.8125 10 4.375 10 1.5C10 0.6875 10.625 0 11.5 0C12.3125 0 13 0.6875 13 1.5Z" fill="#EF4444"/>
<circle opacity="0.2" cx="26" cy="6" r="6" fill="#EF4444"/>
<path d="M25.6406 8.91309V4.52344H25.6211L25.1084 4.87012C24.8545 5.03125 24.7178 5.08008 24.5566 5.08008C24.2344 5.08008 24 4.8457 24 4.52344C24 4.28418 24.1465 4.06934 24.4346 3.88867L25.2305 3.35645C25.6113 3.1123 25.958 3 26.2852 3C26.8564 3 27.2373 3.38574 27.2373 3.98145V8.91309C27.2373 9.46484 26.9492 9.77246 26.4414 9.77246C25.9287 9.77246 25.6406 9.45996 25.6406 8.91309Z" fill="#EF4444"/>
</svg>
